<svg width="58" height="58" viewBox="0 0 58 58" fill="none" xmlns="http://www.w3.org/2000/svg">
<path d="M19.9625 42.0301C19.9625 42.0301 21.1583 45.246 20.4686 46.3791C19.7744 47.5123 17.0019 47.2928 16.1509 47.8303C15.5418 48.2155 15.5508 49.2815 15.9315 49.7204C16.3077 50.1638 21.7944 49.7831 22.8693 47.7049C23.9442 45.6267 22.4841 41.6494 22.4841 41.6494L19.9625 42.0301Z" fill="#F97D23"/>
<path d="M28.7233 41.6494L26.3898 42.1555C26.3898 42.1555 27.3975 46.3791 26.5779 47.7676C25.7582 49.1561 22.8201 50.6386 22.2916 51.8031C21.8168 52.8422 22.9858 53.6932 24.8132 52.56C26.6406 51.4269 28.7098 49.7338 29.0995 48.9008C30.049 46.8853 28.7233 41.6494 28.7233 41.6494Z" fill="#F97D23"/>
<path d="M12.7742 9.80875C7.81154 10.924 3.94624 15.1073 5.39741 21.4718C6.25736 25.2475 6.78587 26.5778 7.09939 28.2798C7.76227 31.8584 7.58311 33.4305 9.09698 36.7091C10.7049 40.1981 16.6215 44.677 23.9983 43.6021C31.3751 42.5272 34.3401 41.5194 34.3401 41.5194L36.9871 39.1859L39.5088 38.5544L39.885 36.727C39.885 36.727 41.7706 36.6419 42.1558 36.0327C42.7649 35.0653 42.4066 34.2681 41.3362 33.8874C40.2657 33.5111 39.6342 33.1931 39.6342 33.1931C39.6342 33.1931 50.0387 26.318 51.2972 25.5655C52.5558 24.8131 54.5131 23.5142 54.6072 23.0439C54.8445 21.8481 51.6108 19.1965 47.3872 17.938C43.1635 16.6749 39.5356 16.33 38.9399 16.8048C38.1472 17.4274 34.6536 23.9934 32.3201 23.6799C29.2924 23.2679 27.2142 20.4327 26.6453 18.8248C26.0004 17.0019 22.1261 7.70814 12.7742 9.80875Z" fill="#36B4E1"/>
<path d="M6.40469 19.6445C5.64776 19.5191 3.71287 21.5794 3.33664 22.081C2.96042 22.5826 2.36472 23.3037 2.57971 23.8457C2.91563 24.6877 4.64001 24.7325 5.64776 24.8131C6.7003 24.8982 8.71581 25.0639 9.05173 24.4369C9.38765 23.8054 8.6755 22.2109 8.08428 21.2434C7.53786 20.3432 7.19298 19.7788 6.40469 19.6445Z" fill="#F97D23"/>
<path d="M14.6509 21.4713C15.6382 21.3522 16.3337 20.3876 16.2045 19.3169C16.0753 18.2461 15.1703 17.4747 14.1831 17.5938C13.1958 17.7129 12.5002 18.6775 12.6294 19.7483C12.7586 20.819 13.6637 21.5904 14.6509 21.4713Z" fill="#2A2D2F"/>
<path d="M20.3384 33.014C19.4651 33.332 20.6117 36.418 21.7896 37.8064C23.0303 39.2665 26.0311 42.5451 30.6175 42.9751C33.7304 43.2707 35.1144 42.3883 35.8489 41.5866C36.3953 40.9909 36.9821 40.3012 37.3852 39.9876C37.9719 39.5263 38.5631 39.9249 39.5709 39.1904C40.2965 38.6619 40.4532 37.784 40.8339 37.466C41.2101 37.1525 41.8506 37.2242 42.1776 36.9196C42.7643 36.3732 42.6837 34.7742 42.2627 34.6936C41.8417 34.613 41.8014 35.8267 41.3803 35.9969C40.9593 36.1671 40.3995 36.0596 39.6157 36.5031C38.9438 36.8793 39.1543 37.6362 38.693 37.9721C38.2317 38.3081 37.3896 37.8467 36.2565 38.4783C35.6429 38.8187 35.1233 40.4535 33.3541 40.8342C31.1595 41.3044 27.8675 39.7055 26.2909 38.5634C22.6316 35.9118 21.8299 32.4676 20.3384 33.014Z" fill="#026AA8"/>
</svg>
