<svg width="74" height="74" viewBox="0 0 74 74" fill="none" xmlns="http://www.w3.org/2000/svg">
<path d="M24.2466 46.7067C24.2466 46.7067 21.807 50.9906 21.0438 54.1414C20.2865 57.2864 20.7027 58.5178 21.5295 61.0847C22.4776 64.0158 23.6281 66.3977 25.8423 64.9928C27.6345 63.8539 27.8252 61.1136 27.5535 60.0267C27.2818 58.9399 27.039 57.4252 27.1488 56.7719C27.2587 56.1186 28.4785 53.1644 29.4556 51.7538C30.4326 50.3431 30.4326 48.2792 30.2707 48.1174C30.1031 47.9555 24.2466 46.7067 24.2466 46.7067Z" fill="#4D4D4D"/>
<path d="M29.918 67.8429C29.918 67.8429 29.2242 71.6701 29.5942 71.6701C29.9585 71.6701 32.5253 71.5487 33.4214 70.9359C34.3175 70.323 35.1211 68.2476 35.8611 65.8888C36.7572 63.0387 38.006 59.3849 38.3008 58.483C38.8442 56.8296 39.4397 55.1473 39.4397 55.1473C39.4397 55.1473 42.2031 54.8987 43.9144 54.8235C46.6431 54.7021 48.5394 54.5749 48.9614 54.864C49.4933 55.2282 51.9388 56.8759 52.54 57.7546C53.4361 59.0554 50.3431 65.1604 50.3431 65.1604C50.3431 65.1604 48.1463 67.1144 48.2272 68.2129C48.3081 69.3113 50.4241 69.1899 52.2972 69.109C54.1703 69.028 55.1705 68.4962 55.4306 68.2129C56.4077 67.1549 57.4252 64.2643 58.0785 61.9055C58.7028 59.6451 59.5411 58.2402 59.2983 56.7776C59.0555 55.3149 51.6497 49.048 51.6497 49.048L33.4619 53.4418L29.918 67.8429Z" fill="#4D4D4D"/>
<path d="M19.6677 16.8581L29.2184 13.0078C29.2184 13.0078 28.2934 10.5681 27.1024 8.45219C25.9115 6.33625 23.2521 2.3761 22.0034 2.69985C20.7546 3.0236 19.4481 9.05922 19.1532 10.678C18.552 13.9791 19.6677 16.8581 19.6677 16.8581Z" fill="#4D4D4D"/>
<path d="M10.8223 25.293C10.8049 25.293 8.84509 25.293 7.50962 25.2525C6.16837 25.212 4.91962 25.1716 4.91962 25.1716C4.91962 25.1716 4.30103 25.1542 4.30103 24.5472C4.30103 23.9344 4.94274 23.9633 4.94274 23.9633C4.94274 23.9633 6.19728 24.0038 7.54431 24.0442C8.86243 24.0847 10.8049 24.0847 10.8223 24.0847C11.1576 24.0847 11.4293 24.3564 11.4293 24.6917C11.4293 25.027 11.1576 25.293 10.8223 25.293Z" fill="#B0B1B2"/>
<path d="M4.95471 28.9641C4.95471 28.9641 4.38237 29.1201 4.25518 28.4958C4.12799 27.8656 4.69455 27.7789 4.69455 27.7789C4.69455 27.7789 6.35377 27.2875 7.49846 27.0447C8.63158 26.8019 10.9903 26.3567 11.0135 26.3509C11.343 26.2873 11.661 26.507 11.7246 26.8366C11.7881 27.1661 11.5685 27.4841 11.2389 27.5476C11.2158 27.5534 8.8744 27.9986 7.75283 28.2356C6.61393 28.4726 4.95471 28.9641 4.95471 28.9641Z" fill="#B0B1B2"/>
<path d="M7.75843 32.0917C7.56187 32.0917 7.37109 31.9934 7.24968 31.82C7.16111 31.6855 7.12905 31.5215 7.16043 31.3636C7.1918 31.2056 7.28409 31.0664 7.41734 30.9759L10.5855 28.4958C10.72 28.4072 10.8839 28.3751 11.0419 28.4065C11.1998 28.4379 11.3391 28.5302 11.4295 28.6634C11.6145 28.9409 11.5394 29.3167 11.2619 29.5075L8.2903 31.8489C8.18624 31.9183 7.87405 32.0917 7.75843 32.0917Z" fill="#B0B1B2"/>
<path d="M21.1244 38.9484C21.1244 39.434 21.4655 43.0415 21.8586 45.6199C22.2633 48.3082 23.4889 50.3432 25.9286 51.9678C28.8597 53.9218 31.4613 54.2456 31.4613 54.2456C31.4613 54.2456 30.5652 59.7782 29.3453 63.4435C29.1257 64.1084 27.8017 66.8198 27.5127 67.2707C27.2236 67.7217 26.4547 69.0224 26.5761 69.959C26.7091 70.9765 27.4722 72.1559 30.7271 71.5026C33.3633 70.9765 33.6177 68.3171 34.3924 66.1607C34.6814 65.3513 36.4794 60.3563 36.8321 59.1885C37.6125 56.6043 38.0519 54.8642 38.4624 54.4132C38.8671 53.9681 43.1856 53.7599 45.8681 53.5981C48.5564 53.4362 52.8692 53.3553 52.8692 53.3553C52.8692 53.3553 54.7019 54.8584 56.7369 55.7949C59.905 57.2518 62.8824 57.6681 64.2641 59.5412C65.5996 61.3449 65.3799 63.0851 65.0792 64.5478C64.5936 66.9065 63.7033 68.2073 63.8594 69.0629C64.0617 70.2018 65.1602 70.3232 67.438 70.3637C69.6406 70.4042 70.0685 69.9648 70.4905 68.901C72.1613 64.6807 69.473 59.2174 69.2706 55.5926C69.1724 53.8756 66.461 53.3957 65.8539 50.8693C65.2411 48.3487 65.0561 45.7818 64.3219 43.2612C63.5241 40.5093 62.5297 38.1853 62.5297 38.1853C62.5297 38.1853 65.3625 36.4624 67.1142 34.5489C68.866 32.6353 71.3635 30.0973 70.3402 25.0792C69.525 21.0901 66.8656 18.4307 60.5583 16.4362C54.3203 14.4648 53.0485 16.7542 52.8692 18.2515C52.6264 20.2865 55.228 20.9918 57.9972 21.5179C60.7664 22.044 66.0678 23.7321 64.5069 28.3571C63.5299 31.2478 59.2171 33.011 59.2171 33.011C59.2171 33.011 55.0661 32.3867 49.4525 32.9995C44.92 33.5024 42.7694 34.6876 42.2838 34.4737C41.5496 34.1499 42.041 33.092 42.8156 31.8721C44.0413 29.9354 45.5444 27.3974 45.5444 24.2235C45.5444 21.0496 44.0413 19.3384 44.0413 19.3384C44.0413 19.3384 44.0008 13.112 43.1047 9.57385C42.2086 6.03572 40.5378 1.91947 38.7861 1.83854C37.0344 1.7576 33.9414 6.02994 33.1321 7.37119C32.3227 8.71244 30.9757 11.4817 30.9757 11.4817C30.9757 11.4817 26.235 10.9093 22.2691 12.8229C18.7888 14.4995 16.6555 19.7431 15.5975 20.1478C14.5396 20.5524 12.0421 20.4599 11.065 22.0903C10.6603 22.7609 10.6199 27.2298 10.6199 27.2298C10.6199 27.2298 10.9263 28.2878 11.25 29.2128C11.5044 29.9354 12.8225 31.8721 14.4066 33.0342C16.4647 34.5431 19.2166 36.6763 19.8236 37.162C20.4307 37.6476 21.1244 38.9484 21.1244 38.9484Z" fill="#5D6265"/>
<path d="M33.0916 14.0022C33.1321 14.8579 35.0862 15.9968 36.1037 16.731C37.1212 17.4652 38.5838 19.0724 39.1562 18.9683C40.1679 18.7891 40.0927 14.4937 39.8904 12.5801C39.688 10.6665 38.6705 7.49256 38.0173 7.24975C37.364 7.00694 35.6759 9.44084 35.248 10.0999C34.5138 11.2388 33.0512 13.2333 33.0916 14.0022Z" fill="#FFAB93"/>
<path d="M12.5047 25.7901C12.7764 25.4663 16.8811 24.3795 17.0141 23.6452C17.1471 22.911 16.1758 22.3155 14.4646 21.9109C12.9268 21.5466 11.5219 21.6912 11.175 21.9398C10.7125 22.2635 10.198 23.9227 10.3367 25.6051C10.4755 27.3452 11.0652 28.7674 11.8283 29.5363C12.3602 30.074 13.6552 30.918 14.7941 30.999C15.933 31.0799 16.991 30.5943 17.5633 30.022C18.1357 29.4496 17.7252 28.5304 16.858 29.0449C15.9908 29.5595 15.4127 29.7155 14.6611 29.5074C13.8749 29.2877 12.7475 28.5188 12.5105 27.2585C12.3602 26.507 12.5047 25.7901 12.5047 25.7901Z" fill="#2F2F2F"/>
<path d="M29.5539 31.0106C29.4614 31.0106 29.3689 30.9875 29.2821 30.947C29.2648 30.9413 27.6576 30.1261 26.2643 29.7156C24.8306 29.2936 23.4893 28.9699 23.472 28.9641C23.1482 28.8831 22.9459 28.5594 23.021 28.2299C23.102 27.9061 23.4257 27.7038 23.7553 27.7789C23.7668 27.7847 25.1428 28.1142 26.6054 28.5478C28.1086 28.993 29.7562 29.8313 29.8256 29.866C29.947 29.9272 30.0443 30.0276 30.1016 30.1509C30.159 30.2742 30.1731 30.4133 30.1417 30.5456C30.1103 30.6779 30.0352 30.7958 29.9285 30.8802C29.8219 30.9646 29.6899 31.0105 29.5539 31.0106Z" fill="#B0B1B2"/>
<path d="M28.9294 35.1905C28.8022 35.1905 28.675 35.15 28.571 35.069C28.5536 35.0575 26.6921 33.6815 25.4953 32.8548C24.3333 32.057 22.7261 31.3112 22.7088 31.3055C22.5678 31.2354 22.4595 31.1133 22.4068 30.9649C22.3541 30.8165 22.3612 30.6535 22.4264 30.5102C22.4917 30.3669 22.6101 30.2546 22.7566 30.1969C22.9031 30.1393 23.0663 30.1408 23.2117 30.2012C23.2811 30.2359 24.9288 30.9933 26.1775 31.8547C27.3916 32.693 29.2705 34.0747 29.2878 34.092C29.5596 34.2886 29.6116 34.6701 29.415 34.9419C29.2994 35.1037 29.1144 35.1905 28.9294 35.1905Z" fill="#B0B1B2"/>
<path d="M26.0557 37.3063C25.9112 37.3063 25.7667 37.2543 25.651 37.1502L21.6389 33.5716C21.3903 33.3462 21.3671 32.9646 21.5926 32.716C21.8181 32.4674 22.1996 32.4443 22.4482 32.6698L26.4604 36.2484C26.5515 36.3304 26.6156 36.4382 26.6443 36.5574C26.6729 36.6766 26.6648 36.8017 26.621 36.9162C26.5772 37.0307 26.4998 37.1292 26.3989 37.1989C26.298 37.2685 26.1783 37.306 26.0557 37.3063Z" fill="#B0B1B2"/>
<path d="M26.1173 23.4588C26.8772 22.1426 26.6526 20.5903 25.6157 19.9916C24.5788 19.3929 23.1222 19.9746 22.3623 21.2908C21.6024 22.607 21.8269 24.1593 22.8638 24.758C23.9008 25.3567 25.3574 24.775 26.1173 23.4588Z" fill="#010000"/>
<path d="M24.0557 21.963C23.7378 22.5585 23.1828 22.9401 22.726 22.6568C22.2693 22.3735 22.5295 21.4659 22.7839 21.1248C23.0382 20.7837 23.4949 20.3559 23.9459 20.6391C24.4084 20.9282 24.2696 21.5699 24.0557 21.963Z" fill="#DEDEDE"/>
</svg>
