<svg width="70" height="70" viewBox="0 0 70 70" fill="none" xmlns="http://www.w3.org/2000/svg">
<path d="M59.6814 28.1985C66.408 26.9522 66.5595 16.124 59.5836 16.2065C54.1245 16.2717 54.6748 21.5659 53.9366 20.5247C52.5023 18.5017 52.0402 13.2976 57.507 11.1405C62.226 9.27856 68.7167 13.0503 69.1328 19.9437C69.3993 24.3578 66.6458 32.511 56.7592 31.1534C42.911 29.2532 52.9568 29.443 59.6814 28.1985Z" fill="#D99E82"/>
<path d="M19.9639 42.6967C19.9639 42.6967 21.9121 47.2067 21.2601 58.5007C21.1432 60.5275 20.8594 62.5965 20.7961 64.2954C17.3216 64.2954 17.6284 68.2531 18.3647 68.2531H23.9293C25.2389 68.2531 27.5591 61.6608 28.1708 52.5124C28.7825 43.3621 19.9639 42.6967 19.9639 42.6967ZM42.763 42.062C42.763 42.062 43.8655 48.827 49.7638 54.3589C50.2566 56.589 51.2383 62.4738 51.5835 64.3204C47.9613 64.3204 49.1252 68.2455 50.1818 68.2455H55.2555C57.079 68.2455 57.3494 61.6454 55.6505 53.4922C53.9535 45.3409 42.763 42.062 42.763 42.062Z" fill="#C1694F"/>
<path d="M61.9208 30.6529C59.5181 23.4584 48.0879 23.6962 35.0815 25.351C29.2236 26.0969 28.1018 16.8124 28.1018 15.2151C28.1018 8.26225 21.8815 4.75514 15.6457 7.106C14.152 7.66782 12.9574 9.65627 12.2824 10.6956C8.49155 16.519 3.35073 10.7243 2.8541 16.1067C2.25392 22.6167 6.15412 24.8007 12.5394 25.351C16.1673 25.6636 19.172 27.4507 19.962 35.0229C20.2573 37.8454 19.3964 45.8453 24.541 48.5911C26.0367 54.265 28.0616 61.2754 28.8554 64.8419C24.5372 65.7547 26.284 69.0202 26.284 69.0202C26.284 69.0202 32.3261 68.9377 33.6396 68.9377C35.2004 68.9377 34.0058 57.4787 31.8467 50.1711C40.9817 50.2536 46.8569 47.6074 48.7188 46.7925C50.69 52.4683 56.6802 53.7588 58.0206 56.1729C58.8508 57.6686 61.6216 62.6598 61.8575 64.794C58.7857 65.7911 59.7655 68.1151 60.1145 68.8629C62.1911 68.7805 66.2888 68.7805 66.8219 68.7805C68.9503 68.7805 64.6417 55.5421 62.8277 52.0733C60.753 48.1021 64.3253 37.8474 61.9208 30.6529Z" fill="#D99E82"/>
<path d="M31.3639 47.5461C31.4483 48.2575 31.6343 49.2546 31.849 50.1712C40.984 50.2536 46.8592 47.6075 48.7211 46.7925C48.3088 45.2969 48.2801 44.3573 48.3932 43.8434C41.8852 44.9115 39.6724 48.0715 31.3639 47.5461ZM12.5398 25.3511C16.1677 25.6636 17.1897 27.4009 17.9817 34.9731C18.277 37.7956 19.3987 45.8453 24.5414 48.5912C23.1608 43.2452 20.785 24.8372 12.5398 25.3511Z" fill="#F4C7B5"/>
<path d="M6.21984 13.4165C0.864263 13.4165 2.55933 14.4251 2.38101 16.6609C2.20268 18.8967 2.23911 22.3674 3.86899 24.1948C6.03001 26.6147 11.2667 26.6223 13.8687 24.7259C16.4708 22.8295 13.0557 13.4165 6.21984 13.4165Z" fill="#F4C7B5"/>
<path d="M4.97305 16.6015C4.76404 18.0626 4.02581 18.8872 3.28757 18.774C1.83027 18.5497 0.618408 16.6897 0.618408 15.2151C0.618408 13.7406 1.81493 13.3686 3.28757 13.4357C5.28752 13.5277 5.2089 14.9467 4.97305 16.6015Z" fill="#272B2B"/>
<path d="M29.2562 17.9436C29.9235 22.7661 27.0376 23.5005 24.6868 23.5005C22.3359 23.5005 18.8307 21.1037 19.4175 16.2716C19.6744 14.1489 20.4817 12.0665 20.9687 10.1835C21.613 7.68501 23.2678 6.8624 24.6005 7.56229C27.7931 9.23818 28.8247 14.843 29.2562 17.9436Z" fill="#662113"/>
<path d="M15.6461 15.215C16.6289 15.215 17.4256 14.4183 17.4256 13.4356C17.4256 12.4528 16.6289 11.6561 15.6461 11.6561C14.6634 11.6561 13.8667 12.4528 13.8667 13.4356C13.8667 14.4183 14.6634 15.215 15.6461 15.215Z" fill="#292F33"/>
<path d="M36.6733 25.1592C36.8133 28.0968 38.4106 31.253 41.9139 32.183C45.559 33.1513 49.814 32.4265 50.8686 27.4371C51.0431 26.6126 51.1179 25.0901 51.0086 24.5341C46.884 24.1908 41.9388 24.534 36.6733 25.1592Z" fill="#C1694F"/>
<path d="M6.02754 21.7116C6.54433 21.7116 6.96328 21.2927 6.96328 20.7759C6.96328 20.2591 6.54433 19.8401 6.02754 19.8401C5.51074 19.8401 5.0918 20.2591 5.0918 20.7759C5.0918 21.2927 5.51074 21.7116 6.02754 21.7116Z" fill="#D99E82"/>
<path d="M7.25848 19.9514C7.54336 19.9514 7.77429 19.7204 7.77429 19.4355C7.77429 19.1507 7.54336 18.9197 7.25848 18.9197C6.97361 18.9197 6.74268 19.1507 6.74268 19.4355C6.74268 19.7204 6.97361 19.9514 7.25848 19.9514Z" fill="#D99E82"/>
<path d="M8.03534 21.2917C8.32021 21.2917 8.55115 21.0608 8.55115 20.7759C8.55115 20.491 8.32021 20.2601 8.03534 20.2601C7.75047 20.2601 7.51953 20.491 7.51953 20.7759C7.51953 21.0608 7.75047 21.2917 8.03534 21.2917Z" fill="#D99E82"/>
</svg>
