<svg width="58" height="51" viewBox="0 0 58 51" fill="none" xmlns="http://www.w3.org/2000/svg">
<path d="M44.5154 33.9229C44.4392 33.42 44.7348 32.8019 45.2499 32.6675C45.9486 32.4871 46.9743 32.7981 47.6461 32.9785C50.7366 33.8039 54.3152 36.0305 54.4541 39.0634C54.6735 43.9237 48.9137 47.2598 44.0406 48.3808C42.0781 48.8312 40.075 49.1394 38.0523 49.3022C34.6887 49.5671 31.2712 49.5517 27.9434 49.0258C26.2862 48.7647 24.638 48.3731 23.0838 47.8049C21.8835 47.3673 19.747 46.6801 18.9632 45.7165C18.8109 45.5284 18.5601 45.2021 18.9946 45.1522C19.223 45.1253 19.532 45.3671 19.7201 45.4516C23.3257 47.0026 27.4239 47.7934 31.4414 47.8088C32.2073 47.8088 32.9777 47.805 33.7391 47.7858C36.104 47.7243 38.4778 47.5477 40.7934 47.1139C45.2544 46.277 52.9492 43.344 51.2382 38.3186C50.5574 36.3185 48.0761 35.2896 45.8859 34.8827C45.6261 34.8366 45.5231 34.7291 45.2947 34.6216C45.1469 34.5487 44.905 34.5333 44.7796 34.4297C44.6273 34.303 44.5422 34.1225 44.5154 33.9229Z" fill="#F2BA94"/>
<path d="M46.4945 31.4352C46.3512 30.9169 46.1765 30.4217 45.9794 29.9495C44.3222 25.9837 39.9284 23.1198 36.0407 20.7242C37.3083 20.4209 38.4862 19.9372 39.4716 19.25C42.7725 16.9504 43.6504 12.7236 41.6259 9.41819C39.27 5.57913 34.1865 3.5521 29.4254 4.88809C26.6171 5.67894 24.3687 8.03613 23.3296 10.7004C22.8907 10.5584 22.4383 10.4432 21.977 10.3434C22.492 8.74635 22.3756 6.93815 21.7799 5.56377C20.2526 2.05103 14.5912 0.457815 10.399 2.29673C8.47753 3.149 6.90992 4.56177 6.42172 6.34694C6.02757 7.71364 6.10819 9.75219 6.81138 10.9615C7.25031 11.7331 8.41035 13.1728 9.61966 13.9214C8.26255 15.2497 7.08459 16.8276 6.22017 18.4745C4.80035 21.1657 4.20466 24.0527 4.96607 26.3561C6.1709 29.984 11.3888 30.2413 15.3303 30.1875C15.3168 30.1875 14.9764 30.9285 14.9272 31.0014C14.7614 31.2586 14.5688 31.5273 14.3404 31.75C13.5745 32.4948 12.5175 32.9824 12.7594 34.1418C12.9744 35.1591 13.9418 35.8309 15.1063 35.854C15.9304 35.8732 16.7187 35.6121 17.3771 35.1975C18.0176 34.7906 18.4207 34.0458 19.1329 33.7386C20.1093 33.3202 20.0107 35.1975 20.1316 35.6659C20.2526 36.1381 20.5258 36.6103 20.7587 37.0556C20.8931 37.3167 21.108 37.5163 21.2738 37.762C21.6903 38.3839 19.424 39.2784 19.0119 39.4781C18.4252 39.7583 17.8877 39.9848 17.507 40.48C17.0815 41.0367 17.0322 41.7508 17.4398 42.3228C18.0534 43.1789 19.2583 43.2672 20.2974 43.2672C22.174 43.2672 23.7282 42.2537 25.2197 41.3669C25.5466 41.1749 25.8915 40.8639 26.2633 40.7488C27.0336 40.5146 27.9294 40.6374 28.7267 40.6374C28.8969 40.6374 29.085 40.6182 29.2597 40.6374C29.4164 40.6528 29.515 40.7296 29.6896 40.7296C29.7344 40.9139 29.1208 41.148 28.973 41.2248C28.234 41.5972 27.0381 41.9811 26.7873 42.7604C25.9632 45.3326 30.0703 45.8432 32.0142 45.1522C32.91 44.8335 33.7117 44.3421 34.4776 43.8354C35.884 42.9063 37.2814 42.3113 38.8848 41.674C39.2297 41.5358 39.5522 41.4053 39.906 41.2786C41.6304 40.6566 43.1846 39.8236 44.4387 38.6104C46.5169 36.5949 47.2246 34.0304 46.4945 31.4352Z" fill="#E0E0E0"/>
<path d="M19.4778 23.3001C20.732 23.3001 21.7486 22.2482 21.7486 20.9506C21.7486 19.653 20.732 18.6011 19.4778 18.6011C18.2237 18.6011 17.207 19.653 17.207 20.9506C17.207 22.2482 18.2237 23.3001 19.4778 23.3001Z" fill="#2F2F2F"/>
<path d="M7.54198 26.333C7.93164 27.3043 7.3449 28.3562 6.2207 28.6864C5.10545 29.0166 3.87823 28.5021 3.48856 27.5347C3.0989 26.5672 3.69012 25.5115 4.80984 25.1813C5.92957 24.8473 7.15231 25.3656 7.54198 26.333Z" fill="#2F2F2F"/>
<path d="M27.6384 13.2343C27.4414 13.0692 27.2398 12.9041 27.1278 12.7313C26.5053 11.7793 27.9699 10.0478 28.6775 9.42975C31.6291 6.8499 37.5502 8.89612 38.0967 12.4434C38.6073 15.7604 35.154 18.4784 31.5037 18.0177C31.1141 17.9678 30.3616 17.9064 30.1018 17.5954C29.9406 17.3996 29.9495 16.9044 29.8824 16.6702C29.524 15.4225 28.691 14.1172 27.6384 13.2343Z" fill="#F2BA94"/>
<path d="M14.1612 4.48501C15.6303 4.55411 16.9292 5.42942 17.6413 6.77693C18.134 7.70982 18.3445 8.91529 17.8294 9.93264C17.6055 10.3741 17.0725 10.5123 16.5798 10.7158C15.9259 10.9961 15.2451 11.1995 14.5912 11.499C14.318 11.6257 14.0493 11.7255 13.7716 11.8598C13.579 11.9597 13.4267 12.0672 13.2027 12.0441C13.0594 12.0249 12.8803 11.9673 12.7414 11.9405C11.5276 11.6871 10.6498 10.9116 10.1302 10.0248C8.79549 7.77125 10.7349 4.32761 14.1612 4.48501Z" fill="#F2BA94"/>
<path d="M25.8334 36.9289C25.5961 37.0134 25.3676 37.0671 25.1571 37.0863C24.2748 37.1631 23.3521 36.9519 22.6758 36.4529C21.6905 35.7311 21.3993 34.6216 21.9144 33.6119C22.1339 33.1897 22.4071 32.7482 22.6758 32.3374C22.8908 31.9995 23.1506 31.6617 23.2446 31.2778C23.3118 31.0129 23.2894 30.6827 23.6881 30.6021C24.6017 30.4179 24.0822 32.0111 23.9523 32.3297C23.5806 33.2357 22.2996 34.4182 23.2312 35.3626C23.8986 36.0382 25.3094 35.9576 26.0036 35.3626C26.2679 35.1361 26.5277 34.8942 26.7471 34.6293C26.9397 34.3874 27.0293 33.9997 27.3428 33.8461C27.6653 33.6926 27.9072 33.9114 27.9833 34.1725C28.0819 34.5026 27.8713 34.7483 27.7728 35.0516C27.6788 35.3319 27.6071 35.5699 27.419 35.8233C27.0383 36.3223 26.4695 36.7062 25.8334 36.9289Z" fill="#B0BEC5"/>
<path d="M31.3603 39.8811C31.4768 39.5203 30.9303 39.1671 30.7467 38.8945C30.3078 38.2265 30.2719 37.1324 30.5183 36.3991C30.6482 36.0152 30.8452 35.7196 31.1095 35.3971C31.4096 35.0439 31.8575 34.5948 31.1408 34.5257C29.9898 34.4182 29.1925 35.5545 28.8745 36.3799C28.552 37.2245 28.5789 38.1344 28.8297 38.9828C29.0313 39.6738 29.1567 39.9349 28.337 40.2804C27.813 40.5031 27.3651 40.4916 26.8008 40.6336C26.8008 40.6336 27.6786 40.5568 28.767 40.6298C28.9327 40.6413 29.0492 40.6067 29.2418 40.6259C29.3314 40.6336 29.3672 40.6451 29.5284 40.695C29.6001 40.7181 29.6539 40.7181 29.6852 40.7181H29.6942C29.9584 40.6067 30.2227 40.4915 30.4914 40.3841C30.7601 40.2842 31.2707 40.1499 31.3603 39.8811Z" fill="#B0BEC5"/>
</svg>
