<svg width="57" height="57" viewBox="0 0 57 57" fill="none" xmlns="http://www.w3.org/2000/svg">
<g clip-path="url(#clip0)">
<path d="M46.2162 45.8494C49.0426 46.934 51.4241 46.311 53.245 45.5642C58.1019 43.5697 54.2944 38.6179 54.255 38.5855C51.783 35.0667 49.8587 32.6992 43.2081 41.6865C42.1472 43.1142 43.4828 44.7982 46.2179 45.8494" fill="#698A98"/>
<path d="M10.9658 13.6908C8.61239 17.9019 7.96742 22.4044 10.6736 24.3796C13.3728 26.3522 23.5316 8.69255 24.0546 7.98177C25.6455 5.80206 25.2568 2.81593 23.1956 1.30399C21.1238 -0.200918 18.1613 0.345764 16.5731 2.52547C15.3972 4.13832 14.0046 8.25204 10.9658 13.6908Z" fill="#698A98"/>
<path d="M12.6008 13.5916C10.7317 16.8796 10.1508 20.358 12.1462 21.8181C14.1452 23.2765 22.2006 9.47171 22.6078 8.91537C23.86 7.20249 23.6327 4.9166 22.1059 3.79779C20.5755 2.68424 18.3238 3.1695 17.0752 4.88238C16.1555 6.14686 15.0148 9.34184 12.6008 13.5916Z" fill="#DE374B"/>
<path d="M12.4563 47.335C12.4563 51.9269 20.8285 55.6405 31.1672 55.6405C41.5068 55.6405 49.879 51.9278 49.879 47.335C49.879 42.7474 41.5068 31.4347 31.1672 31.4347C20.8285 31.4347 12.4563 42.7483 12.4563 47.335Z" fill="#7094A6"/>
<path d="M6.71446 37.9343C12.1313 40.0123 16.6995 38.8224 20.1858 37.3912C29.4891 33.5644 22.1962 24.0769 22.1163 24.011C17.3813 17.2754 13.6932 12.7334 0.951036 29.957C-1.0795 32.6948 1.4749 35.9214 6.71446 37.9335" fill="#7094A6"/>
<path d="M20.0597 13.0557C16.8086 17.3335 15.5055 22.3396 18.3995 25.2187C21.2935 28.0925 35.2712 10.2134 35.967 9.52021C38.0853 7.38876 38.002 3.88315 35.7977 1.6815C33.5785 -0.514001 30.0711 -0.568406 27.9555 1.56216C26.3935 3.13903 24.2682 7.52916 20.0632 13.0574" fill="#7094A6"/>
<path d="M21.5032 13.9041C18.9119 17.3123 17.8729 21.2987 20.179 23.5917C22.4851 25.8811 33.6179 11.6375 34.1699 11.0855C35.8591 9.38756 35.7941 6.59448 34.033 4.84211C32.2692 3.0915 29.4717 3.0485 27.7861 4.74646C26.5453 6.00041 24.8491 9.49988 21.5032 13.9023" fill="#DE374B"/>
<path d="M12.4568 31.3759C13.7561 31.3759 14.8094 30.0979 14.8094 28.5214C14.8094 26.9449 13.7561 25.6669 12.4568 25.6669C11.1575 25.6669 10.1042 26.9449 10.1042 28.5214C10.1042 30.0979 11.1575 31.3759 12.4568 31.3759Z" fill="#25333A"/>
<path d="M19.3053 51.1846C17.7504 49.484 15.3425 48.7689 13.3111 48.3433C7.88727 47.2078 7.49766 51.0986 7.50468 51.1329C7.04311 53.7996 6.34287 57.0077 18.2225 55.6783C20.1135 55.4686 20.8137 52.8264 19.3053 51.1846Z" fill="#7094A6"/>
<path d="M28.1592 50.3421C26.3226 48.6511 23.6594 48.1027 21.4323 47.8289C15.4776 47.1067 15.417 51.3363 15.4276 51.374C15.1749 54.2935 14.7168 57.8175 27.4046 55.2894C29.4219 54.8928 29.9344 51.9769 28.1592 50.3456" fill="#7094A6"/>
<path d="M42.6799 51.1846C41.125 49.484 38.7171 48.7689 36.6857 48.3433C31.2619 47.2078 30.8723 51.0986 30.8802 51.1329C30.4186 53.7996 29.7184 57.0077 41.598 55.6783C43.489 55.4686 44.1883 52.8264 42.6799 51.1846Z" fill="#7094A6"/>
<path d="M51.6193 49.5436C50.2653 47.3113 48.1689 46.4039 46.4008 45.8713C41.6728 44.4603 41.3235 49.6314 41.3271 49.677C40.9155 53.2283 40.2951 57.5008 50.6593 55.5282C52.3081 55.2202 52.9285 51.6979 51.6193 49.5436Z" fill="#7094A6"/>
</g>
<defs>
<clipPath id="clip0">
<rect width="56.16" height="56.16" fill="white"/>
</clipPath>
</defs>
</svg>
