<svg width="55" height="55" viewBox="0 0 55 55" fill="none" xmlns="http://www.w3.org/2000/svg">
<g clip-path="url(#clip0)">
<path d="M45.5774 31.0758C44.5163 30.6854 43.502 30.436 42.6037 30.3357C39.6504 27.5309 35.6607 25.8076 31.2761 25.8076C27.8459 25.8076 24.6577 26.8628 22.0181 28.6648C18.1097 28.3746 14.8281 25.4387 14.1609 21.5209L14.1544 21.5205C13.6304 18.6525 11.397 16.4803 8.68605 16.4391C5.54775 16.3914 0.670399 19.1997 0.265815 22.7102C-0.315125 27.7498 4.17988 27.8219 8.14034 27.8216C9.94223 31.1845 12.8694 33.8232 16.3744 35.2786C15.3742 37.402 14.8138 39.7716 14.8138 42.2699C14.8138 44.4344 16.5679 46.1894 18.7333 46.1894C20.8988 46.1894 22.653 44.4344 22.653 42.2699C22.653 39.9821 23.5503 37.9013 25.0093 36.3561C27.4348 35.9801 28.6331 35.0479 28.9941 33.9556C29.7375 33.7508 30.505 33.6469 31.2761 33.6468C36.03 33.6468 39.8992 37.515 39.8992 42.2699C39.8992 44.4344 41.6533 46.1894 43.8189 46.1894C45.9844 46.1894 47.7385 44.4344 47.7385 42.2699C47.7385 40.3954 47.4227 38.5934 46.843 36.9133C50.4119 36.3414 54.6254 34.6483 54.7446 33.174C54.8993 31.2591 51.754 33.3487 45.5774 31.0758Z" fill="#97C83D"/>
<path d="M8.46369 18.4017C9.29767 18.4017 9.97377 19.0778 9.97377 19.9117V21.7681C9.97377 22.6021 9.29767 23.2782 8.46369 23.2782C7.62971 23.2782 6.95361 22.6021 6.95361 21.7681V19.9117C6.95351 19.0778 7.6296 18.4017 8.46369 18.4017Z" fill="#2C3C47"/>
<path d="M43.4951 25.9043C43.4719 25.8563 43.4501 25.8096 43.4259 25.7609C40.8487 20.5513 36.8399 18.0799 36.0007 18.726C35.3238 19.2471 36.6545 19.3736 38.0072 24.5407C36.6695 24.3242 35.265 24.1701 33.8108 24.0869C33.0899 21.0958 32.0322 18.6251 31.2763 18.6251C30.5204 18.6251 29.4627 21.0958 28.7417 24.0869C27.2875 24.1701 25.883 24.3242 24.5454 24.5407C25.898 19.3736 27.2288 19.2471 26.5518 18.726C25.7126 18.0799 21.7038 20.5514 19.1266 25.7609C19.1025 25.8096 19.0807 25.8564 19.0574 25.9043C14.4472 27.5262 11.4861 30.0449 11.4861 32.8732C11.4861 37.7656 20.3465 41.7318 31.2761 41.7318C42.2058 41.7318 51.0662 37.7656 51.0662 32.8732C51.0664 30.0449 48.1053 27.5262 43.4951 25.9043Z" fill="#009D82"/>
<path d="M31.4199 14.5022V14.4827C31.4124 14.4827 31.4054 14.4847 31.3979 14.4847C31.3904 14.4847 31.3835 14.4827 31.376 14.4827V14.4866C31.3431 14.4866 31.3089 14.4926 31.2761 14.4929C31.2432 14.4927 31.209 14.4866 31.1761 14.4866V14.4827C31.1686 14.4827 31.1617 14.4847 31.1542 14.4847C31.1467 14.4847 31.1322 14.5022 31.1322 14.5022C23.5845 14.6671 14.0723 21.5539 14.0723 30.6919C14.0723 31.9294 15.6196 38.4202 31.1324 38.5037V38.5114C31.1401 38.5114 31.1466 38.5109 31.1543 38.5109C31.162 38.5109 31.1684 38.5114 31.1761 38.5114V38.5102C31.2114 38.5102 31.2411 38.5076 31.2762 38.5076C31.3113 38.5076 31.3408 38.5102 31.3762 38.5102V38.5114C31.3839 38.5114 31.3903 38.5109 31.398 38.5109C31.4057 38.5109 31.4122 38.5114 31.4199 38.5114V38.5037C46.9326 38.4202 48.48 31.9294 48.48 30.6919C48.4798 21.5539 38.9676 14.6671 31.4199 14.5022ZM23.5957 29.2015C22.5842 35.5984 19.7106 32.3269 18.8713 31.6809C18.0321 31.0348 17.2732 29.5072 19.1265 25.7609C21.7037 20.5513 25.7125 18.08 26.5518 18.726C27.391 19.372 25.1441 19.4095 23.5957 29.2015ZM31.2761 34.3571C30.0224 34.3571 27.9377 34.8131 27.9377 30.1174C27.9377 25.4217 30.0224 18.6252 31.2761 18.6252C32.5298 18.6252 34.6145 25.4218 34.6145 30.1174C34.6145 34.8131 32.5298 34.3571 31.2761 34.3571ZM43.6808 31.6809C42.8416 32.3269 39.9679 35.5984 38.9564 29.2015C37.4081 19.4095 35.1613 19.372 36.0005 18.726C36.8397 18.08 40.8485 20.5514 43.4258 25.7609C45.279 29.5074 44.5201 31.0348 43.6808 31.6809Z" fill="#047F67"/>
</g>
<defs>
<clipPath id="clip0">
<rect width="54.99" height="54.99" fill="white"/>
</clipPath>
</defs>
</svg>
